<?xml version="1.0" encoding="UTF-8"?>
<svg width="20px" height="20px" version="1.1" viewBox="0 0 100 100" xmlns="http://www.w3.org/2000/svg">
 <g>
  <path d="m83.301 79.699c0 2-1.6016 3.6016-3.6016 3.6016h-59.398c-2 0-3.6016-1.6016-3.6016-3.6016v-59.398c0-2 1.6016-3.6016 3.6016-3.6016h23.398v-7.1992h-23.398c-6 0-10.801 4.8008-10.801 10.801v59.398c0 6 4.8008 10.801 10.801 10.801h59.398c6 0 10.801-4.8008 10.801-10.801v-23.398h-7.1992z"/>
  <path d="m56.301 9.5v7.1992h21.898l-28.301 28.301 5.1016 5.1016 28.301-28.301v21.898h7.1992v-34.199z"/>
 </g>
</svg>
