<?xml version="1.0" encoding="UTF-8"?>
<svg width="20px" height="20px" viewBox="0 0 20 20" version="1.1" xmlns="http://www.w3.org/2000/svg" xmlns:xlink="http://www.w3.org/1999/xlink">
    <!-- Generator: Sketch 56 (81588) - https://sketch.com -->
    <title>np_link_1119743_000000</title>
    <desc>Created with Sketch.</desc>
    <g id="Page-1" stroke="none" stroke-width="1" fill="none" fill-rule="evenodd">
        <g id="work" transform="translate(-55.000000, -98.000000)" fill="#000000" fill-rule="nonzero">
            <g id="np_link_1119743_000000" transform="translate(55.000000, 98.000000)">
                <path d="M18.2223704,17.333037 C18.2223704,17.8268642 17.8269136,18.222321 17.3330864,18.222321 L2.66691358,18.222321 C2.17308642,18.222321 1.77762963,17.8268642 1.77762963,17.333037 L1.77762963,2.6668642 C1.77762963,2.17303704 2.17308642,1.77758025 2.66691358,1.77758025 L8.44419753,1.77758025 L8.44419753,0 L2.66691358,0 C1.1854321,0 0,1.18538272 0,2.66691358 L0,17.3330864 C0,18.8145679 1.18538272,20 2.66691358,20 L17.3330864,20 C18.8145679,20 20,18.8146173 20,17.3330864 L20,11.5558025 L18.2224198,11.5558025 L18.2223704,17.333037 Z" id="Path"></path>
                <polygon id="Path" points="11.5770237 4.92586572e-05 11.5770237 1.77316388 16.9703806 1.77316388 10 8.74351017 11.256496 10 18.2268766 3.02965371 18.2268766 8.42298409 20 8.42298409 20 0"></polygon>
            </g>
        </g>
    </g>
</svg>